<?xml version="1.0" encoding="UTF-8" standalone="no"?>
<svg
   version="1.0"
   width="114pt"
   height="132pt"
   viewBox="0 0 114 132"
   preserveAspectRatio="xMidYMid"
   id="svg15"
   sodipodi:docname="bulb-brain-purple.svg"
   inkscape:version="1.3.2 (091e20e, 2023-11-25, custom)"
   xmlns:inkscape="http://www.inkscape.org/namespaces/inkscape"
   xmlns:sodipodi="http://sodipodi.sourceforge.net/DTD/sodipodi-0.dtd"
   xmlns="http://www.w3.org/2000/svg"
   xmlns:svg="http://www.w3.org/2000/svg">
  <defs
     id="defs15" />
  <sodipodi:namedview
     id="namedview15"
     pagecolor="#ffffff"
     bordercolor="#000000"
     borderopacity="0.25"
     inkscape:showpageshadow="2"
     inkscape:pageopacity="0.0"
     inkscape:pagecheckerboard="0"
     inkscape:deskcolor="#d1d1d1"
     inkscape:document-units="pt"
     inkscape:zoom="2.4"
     inkscape:cx="75.625"
     inkscape:cy="87.708333"
     inkscape:window-width="1920"
     inkscape:window-height="1027"
     inkscape:window-x="1912"
     inkscape:window-y="-8"
     inkscape:window-maximized="1"
     inkscape:current-layer="svg15" />
  <g
     transform="matrix(0.1,0,0,-0.1,-73,196)"
     fill="#000000"
     stroke="none"
     id="g15"
     style="fill:#800080">
    <path
       d="m 1290,1905 c 0,-30 5,-55 10,-55 6,0 10,25 10,55 0,30 -4,55 -10,55 -5,0 -10,-25 -10,-55 z"
       id="path1"
       style="fill:#800080" />
    <path
       d="m 1010,1886 c 0,-17 51,-96 61,-96 6,0 1,17 -12,38 -25,43 -49,70 -49,58 z"
       id="path2"
       style="fill:#800080" />
    <path
       d="m 1558,1853 c -39,-61 -40,-63 -29,-63 12,0 66,89 58,96 -3,3 -16,-11 -29,-33 z"
       id="path3"
       style="fill:#800080" />
    <path
       d="m 1200,1786 c -153,-41 -268,-164 -300,-321 -21,-102 7,-230 70,-311 102,-134 124,-169 136,-220 7,-30 8,-56 4,-59 -5,-3 -7,-13 -4,-23 11,-31 49,-102 55,-102 4,0 9,-10 12,-23 9,-35 84,-87 127,-87 43,0 118,52 127,87 3,13 8,23 12,23 6,0 44,71 55,102 3,10 1,20 -4,23 -11,7 13,107 32,138 9,12 39,52 68,87 67,84 96,142 111,224 52,281 -225,537 -501,462 z m 223,-25 c 110,-38 179,-101 231,-211 28,-58 31,-75 31,-160 0,-83 -4,-103 -28,-154 -15,-33 -53,-91 -84,-130 -31,-39 -62,-77 -67,-84 -5,-8 -17,-44 -26,-80 l -16,-67 h -164 -165 l -12,58 c -15,66 -26,86 -101,180 -72,91 -104,163 -110,249 -13,178 98,345 263,398 79,25 176,25 248,1 z m 50,-908 c 4,-3 2,-12 -4,-20 -16,-19 -322,-19 -338,0 -6,8 -8,17 -4,20 8,9 338,9 346,0 z m -23,-61 c 0,-26 -30,-32 -150,-32 -120,0 -150,6 -150,32 0,4 68,8 150,8 83,0 150,-4 150,-8 z m -42,-59 c -3,-16 -16,-18 -108,-18 -92,0 -105,2 -108,18 -3,15 7,17 108,17 101,0 111,-2 108,-17 z m -38,-48 c 0,-2 -14,-12 -31,-21 -33,-17 -62,-14 -94,10 -18,14 -14,15 53,16 39,0 72,-2 72,-5 z"
       id="path4"
       style="fill:#800080" />
    <path
       d="m 1207,1649 c -7,-11 -21,-19 -33,-19 -30,0 -64,-41 -64,-77 0,-23 -6,-33 -20,-38 -30,-10 -53,-61 -46,-104 7,-43 7,-43 0,-103 -5,-43 -3,-50 25,-79 17,-17 31,-39 31,-48 0,-27 38,-71 61,-71 11,0 33,-10 50,-22 29,-22 31,-22 60,-6 27,16 31,16 58,0 29,-16 31,-16 60,6 17,12 39,22 50,22 23,0 61,44 61,71 0,9 14,31 31,48 28,29 30,36 25,79 -7,60 -7,60 0,103 7,43 -16,94 -46,104 -15,5 -20,15 -20,40 0,35 -36,75 -69,75 -9,0 -21,8 -28,19 -10,15 -24,18 -93,18 -69,0 -83,-3 -93,-18 z m 71,-1 c 9,-9 12,-83 12,-269 0,-221 -2,-260 -16,-273 -30,-31 -70,-10 -77,39 -4,28 -5,29 -12,8 -8,-25 -34,-30 -53,-11 -20,20 -15,75 10,92 12,9 19,19 15,22 -4,4 -17,-2 -30,-14 l -23,-22 -22,20 c -28,26 -37,62 -22,89 8,17 15,19 29,11 31,-16 31,1 0,27 -22,19 -29,33 -29,61 0,40 32,82 61,82 10,0 21,5 24,10 3,6 1,10 -4,10 -15,0 -14,53 1,68 17,17 58,15 80,-5 15,-13 18,-14 18,-2 0,8 -5,20 -12,27 -8,8 -8,15 2,27 15,18 32,19 48,3 z m 92,-3 c 10,-12 10,-19 2,-27 -7,-7 -12,-19 -12,-27 0,-12 3,-11 18,2 22,20 63,22 80,5 15,-15 16,-68 1,-68 -5,0 -7,-4 -4,-10 3,-5 13,-10 22,-10 31,0 63,-41 63,-81 0,-29 -7,-43 -29,-62 -31,-26 -31,-43 0,-27 14,8 21,6 29,-11 15,-27 6,-63 -22,-89 l -22,-20 -23,22 c -13,12 -26,18 -30,14 -4,-3 3,-13 15,-22 25,-17 30,-72 10,-92 -19,-19 -45,-14 -53,11 -7,21 -8,20 -12,-8 -7,-49 -47,-70 -77,-39 -14,13 -16,52 -16,273 0,258 3,281 36,281 6,0 17,-7 24,-15 z"
       id="path5"
       style="fill:#800080" />
    <path
       d="m 1200,1563 c 0,-5 7,-17 15,-27 34,-45 5,-96 -53,-96 -18,0 -32,-4 -32,-10 0,-5 6,-10 13,-10 9,0 11,-12 9,-40 -3,-26 0,-40 8,-40 6,0 8,5 5,11 -12,19 5,58 32,72 24,13 28,12 49,-12 12,-14 25,-23 29,-19 4,3 -3,16 -15,28 -17,17 -21,29 -16,56 5,22 1,44 -9,64 -14,27 -35,41 -35,23 z"
       id="path6"
       style="fill:#800080" />
    <path
       d="m 1223,1302 c -3,-14 -11,-18 -29,-14 -14,2 -24,0 -24,-7 0,-6 9,-11 19,-11 29,0 53,-29 48,-57 -2,-12 -1,-23 4,-23 14,0 20,39 9,61 -7,12 -10,32 -7,45 5,28 -13,33 -20,6 z"
       id="path7"
       style="fill:#800080" />
    <path
       d="m 1365,1540 c -10,-20 -14,-42 -10,-63 5,-25 1,-39 -15,-60 -12,-15 -17,-27 -11,-27 5,0 18,11 28,24 18,22 21,23 46,10 27,-15 44,-54 32,-73 -3,-6 -1,-11 5,-11 7,0 10,15 8,38 -2,24 2,41 12,49 12,10 9,12 -21,13 -59,0 -88,51 -54,96 17,22 19,34 5,34 -5,0 -17,-14 -25,-30 z"
       id="path8"
       style="fill:#800080" />
    <path
       d="m 1357,1296 c 3,-13 0,-33 -7,-45 -11,-22 -5,-61 9,-61 5,0 6,11 4,23 -5,28 19,57 48,57 10,0 19,5 19,11 0,7 -10,9 -24,7 -18,-4 -26,0 -29,14 -7,27 -25,22 -20,-6 z"
       id="path9"
       style="fill:#800080" />
    <path
       d="m 800,1675 c 0,-8 86,-55 101,-55 8,0 -7,14 -33,30 -44,28 -68,37 -68,25 z"
       id="path10"
       style="fill:#800080" />
    <path
       d="m 1731,1652 c -25,-14 -40,-27 -33,-30 12,-4 102,44 102,53 0,11 -28,2 -69,-23 z"
       id="path11"
       style="fill:#800080" />
    <path
       d="m 730,1390 c 0,-5 25,-10 55,-10 30,0 55,5 55,10 0,6 -25,10 -55,10 -30,0 -55,-4 -55,-10 z"
       id="path12"
       style="fill:#800080" />
    <path
       d="m 1760,1390 c 0,-5 25,-10 55,-10 30,0 55,5 55,10 0,6 -25,10 -55,10 -30,0 -55,-4 -55,-10 z"
       id="path13"
       style="fill:#800080" />
    <path
       d="m 846,1139 c -26,-17 -46,-33 -42,-36 7,-7 96,45 96,57 0,13 2,14 -54,-21 z"
       id="path14"
       style="fill:#800080" />
    <path
       d="m 1696,1163 c -3,-4 15,-19 41,-35 51,-29 77,-37 53,-15 -27,25 -87,57 -94,50 z"
       id="path15"
       style="fill:#800080" />
  </g>
</svg>
